<svg width="39" height="31" viewBox="0 0 39 31" fill="none" xmlns="http://www.w3.org/2000/svg">
<path d="M9 22.5625V23.4583C12.5934 18.8394 16.65 16.3758 21.75 16.2916V21.6666C21.75 22.6538 22.8359 23.4583 24.1789 23.4583C24.9524 23.4583 25.6132 23.1752 26.0552 22.7578C30.1629 19.1225 38.75 11.8125 38.75 11.8125C38.75 11.8125 30.1629 4.49888 26.0531 0.817001C25.5536 0.401516 24.8806 0.167974 24.1789 0.166626C22.8359 0.166626 21.75 0.967501 21.75 1.95829V7.33329C11.8475 7.33329 9 16.0605 9 22.5625ZM2.625 30.625H32.375C32.9386 30.625 33.4791 30.4362 33.8776 30.1002C34.2761 29.7642 34.5 29.3085 34.5 28.8333V18.0009C33.089 19.212 31.6015 20.4967 30.25 21.6684V27.0416H4.75V5.54163H19.625V1.95829H2.625C2.06141 1.95829 1.52091 2.14706 1.1224 2.48306C0.723884 2.81906 0.5 3.27478 0.5 3.74996V28.8333C0.5 29.3085 0.723884 29.7642 1.1224 30.1002C1.52091 30.4362 2.06141 30.625 2.625 30.625Z" fill="#005117"/>
</svg>
